<svg xmlns="http://www.w3.org/2000/svg" viewBox="0 0 1440 500" overflow="visible">
  <g><rect x="-10" y="80" width="64" height="240" fill="#FF7C40"></rect><rect x="114" y="140" width="64" height="180" fill="#FF7C40"></rect><rect x="238" y="80" width="96" height="240" fill="#FF7C40"></rect><rect x="344" y="110" width="50" height="210" fill="#FF7C40"></rect><rect x="424" y="170" width="64" height="150" fill="#FF7C40"></rect><rect x="548" y="80" width="96" height="240" fill="#FF7C40"></rect><rect x="704" y="110" width="96" height="210" fill="#FF7C40"></rect><rect x="860" y="170" width="64" height="150" fill="#FF7C40"></rect><rect x="984" y="80" width="64" height="240" fill="#FF7C40"></rect><rect x="1078" y="200" width="50" height="120" fill="#FF7C40"></rect><rect x="1138" y="140" width="50" height="180" fill="#FF7C40"></rect><rect x="1198" y="110" width="80" height="210" fill="#FF7C40"></rect><rect x="1338" y="110" width="96" height="210" fill="#FF7C40"></rect></g>
  <path d="M -20 300 C 80 250, 160 170, 280 150 C 380 135, 430 200, 520 220 C 620 240, 700 230, 780 250 C 900 280, 980 190, 1100 180 C 1220 172, 1300 240, 1460 230 L 1460 440 L -20 440 Z" fill="#FF8A55"></path>
  <path d="M -20 330 C 120 300, 220 280, 360 290 C 500 300, 600 270, 760 290 C 900 305, 1040 280, 1180 285 C 1300 290, 1380 300, 1460 295 L 1460 440 L -20 440 Z" fill="#FFA374"></path>
  <g><rect x="-10" y="200" width="60" height="140" fill="#FF8A55"></rect><rect x="50" y="140" width="40" height="200" fill="#FF8A55"></rect><rect x="68" y="122" width="4" height="18" fill="#FF8A55"></rect><rect x="80" y="140" width="40" height="200" fill="#FF8A55"></rect><rect x="98" y="122" width="4" height="18" fill="#FF8A55"></rect><rect x="120" y="160" width="70" height="180" fill="#FF8A55"></rect><rect x="153" y="142" width="4" height="18" fill="#FF8A55"></rect><rect x="190" y="160" width="84" height="180" fill="#FF8A55"></rect><rect x="230" y="142" width="4" height="18" fill="#FF8A55"></rect><rect x="264" y="200" width="40" height="140" fill="#FF8A55"></rect><rect x="294" y="140" width="40" height="200" fill="#FF8A55"></rect><rect x="334" y="220" width="52" height="120" fill="#FF8A55"></rect><rect x="386" y="160" width="60" height="180" fill="#FF8A55"></rect><rect x="414" y="142" width="4" height="18" fill="#FF8A55"></rect><rect x="446" y="180" width="84" height="160" fill="#FF8A55"></rect><rect x="520" y="220" width="52" height="120" fill="#FF8A55"></rect><rect x="562" y="180" width="52" height="160" fill="#FF8A55"></rect><rect x="586" y="162" width="4" height="18" fill="#FF8A55"></rect><rect x="604" y="140" width="40" height="200" fill="#FF8A55"></rect><rect x="622" y="122" width="4" height="18" fill="#FF8A55"></rect><rect x="644" y="120" width="70" height="220" fill="#FF8A55"></rect><rect x="708" y="140" width="70" height="200" fill="#FF8A55"></rect><rect x="772" y="200" width="60" height="140" fill="#FF8A55"></rect><rect x="822" y="220" width="52" height="120" fill="#FF8A55"></rect><rect x="864" y="180" width="70" height="160" fill="#FF8A55"></rect><rect x="928" y="220" width="84" height="120" fill="#FF8A55"></rect><rect x="968" y="202" width="4" height="18" fill="#FF8A55"></rect><rect x="1006" y="180" width="52" height="160" fill="#FF8A55"></rect><rect x="1030" y="162" width="4" height="18" fill="#FF8A55"></rect><rect x="1052" y="220" width="70" height="120" fill="#FF8A55"></rect><rect x="1122" y="140" width="84" height="200" fill="#FF8A55"></rect><rect x="1200" y="120" width="60" height="220" fill="#FF8A55"></rect><rect x="1254" y="160" width="84" height="180" fill="#FF8A55"></rect><rect x="1294" y="142" width="4" height="18" fill="#FF8A55"></rect><rect x="1338" y="160" width="60" height="180" fill="#FF8A55"></rect><rect x="1398" y="120" width="40" height="220" fill="#FF8A55"></rect><rect x="1428" y="120" width="84" height="220" fill="#FF8A55"></rect></g>
  <g transform="translate(250 50) scale(1.4)">
    <rect x="0" y="12" width="36" height="72" fill="#7A3E2B"></rect>
    <rect x="-4" y="6" width="44" height="10" fill="#5E2D1F"></rect>
    <rect x="-2" y="0" width="40" height="8" fill="#7A3E2B"></rect>
    <rect x="10" y="24" width="16" height="10" rx="2" fill="#FFA374"></rect>
    <rect x="12" y="48" width="12" height="16" rx="2" fill="#5E2D1F"></rect>
  </g>
  <path d="M 900 300 C 960 230, 1020 206, 1100 204 C 1180 206, 1240 230, 1290 300 Z" fill="#FF8A55"></path>
  <g transform="translate(1000 134)">
    <rect x="0" y="22" width="180" height="46" fill="#FFF6EC"></rect>
    <rect x="-8" y="14" width="196" height="12" fill="#E8D9C4"></rect>
    <rect x="50" y="2" width="80" height="14" fill="#FFF6EC"></rect>
    <g fill="#E8D9C4"><rect x="12" y="30" width="8" height="38"></rect><rect x="34" y="30" width="8" height="38"></rect><rect x="56" y="30" width="8" height="38"></rect><rect x="78" y="30" width="8" height="38"></rect><rect x="100" y="30" width="8" height="38"></rect><rect x="122" y="30" width="8" height="38"></rect><rect x="144" y="30" width="8" height="38"></rect><rect x="166" y="30" width="8" height="38"></rect></g>
    <rect x="-8" y="66" width="196" height="8" fill="#E8D9C4"></rect>
  </g>
  <rect x="420" y="190" width="120" height="170" fill="#9BF0C4"></rect>
  <rect x="540" y="198" width="18" height="162" fill="#6FD9A6"></rect>
  <g stroke="#6FD9A6" stroke-width="4"><line x1="420" y1="230" x2="540" y2="230"></line><line x1="420" y1="270" x2="540" y2="270"></line><line x1="420" y1="310" x2="540" y2="310"></line></g>
  <rect x="860" y="170" width="130" height="190" fill="#3B35C9"></rect>
  <rect x="990" y="180" width="20" height="180" fill="#2B26A3"></rect>
  <g fill="#2B26A3"><rect x="878" y="190" width="12" height="160"></rect><rect x="908" y="190" width="12" height="160"></rect><rect x="938" y="190" width="12" height="160"></rect><rect x="968" y="190" width="12" height="160"></rect></g>
  <rect x="912" y="226" width="12" height="22" fill="#FFB020"></rect>
  <rect x="20" y="210" width="130" height="150" fill="#F7B8D2"></rect>
  <rect x="150" y="218" width="18" height="142" fill="#E08FB2"></rect>
  <g fill="#0B1B3A"><rect x="20" y="240" width="130" height="7"></rect><rect x="20" y="276" width="130" height="7"></rect><rect x="20" y="312" width="130" height="7"></rect></g>
  <rect x="190" y="250" width="100" height="110" fill="#FFF6EC"></rect>
  <rect x="290" y="256" width="14" height="104" fill="#E8D9C4"></rect>
  <g fill="#3B35C9"><rect x="206" y="266" width="20" height="24" rx="2"></rect><rect x="236" y="266" width="20" height="24" rx="2"></rect><rect x="266" y="266" width="16" height="24" rx="2"></rect><rect x="206" y="304" width="20" height="24" rx="2"></rect><rect x="236" y="304" width="20" height="24" rx="2"></rect></g>
  <rect x="320" y="150" width="90" height="210" fill="#0B1B3A"></rect>
  <rect x="410" y="160" width="14" height="200" fill="#050E20"></rect>
  <g fill="#1B3160"><rect x="332" y="170" width="18" height="16"></rect><rect x="358" y="170" width="18" height="16"></rect><rect x="384" y="170" width="18" height="16"></rect><rect x="332" y="200" width="18" height="16"></rect><rect x="384" y="200" width="18" height="16"></rect><rect x="332" y="230" width="18" height="16"></rect><rect x="358" y="230" width="18" height="16"></rect><rect x="384" y="230" width="18" height="16"></rect><rect x="332" y="260" width="18" height="16"></rect><rect x="358" y="260" width="18" height="16"></rect></g>
  <rect x="358" y="200" width="18" height="16" fill="#FFB020"></rect>
  <rect x="560" y="230" width="70" height="130" fill="#FFB020"></rect>
  <rect x="630" y="236" width="12" height="124" fill="#E08E00"></rect>
  <g fill="#0B1B3A"><rect x="572" y="250" width="46" height="6"></rect><rect x="572" y="274" width="46" height="6"></rect><rect x="572" y="298" width="46" height="6"></rect></g>
  <rect x="1380" y="200" width="80" height="160" fill="#3B35C9"></rect>
  <g fill="#2B26A3"><rect x="1392" y="214" width="10" height="136"></rect><rect x="1414" y="214" width="10" height="136"></rect><rect x="1436" y="214" width="10" height="136"></rect></g>
  <line x1="334" y1="150" x2="334" y2="252" stroke="#FFF6EC" stroke-width="2"></line>
  <line x1="396" y1="150" x2="396" y2="252" stroke="#FFF6EC" stroke-width="2"></line>
  <rect x="320" y="150" width="90" height="70" fill="#9BF0C4"></rect>
  <g fill="#6FD9A6"><rect x="332" y="170" width="18" height="16"></rect><rect x="358" y="170" width="18" height="16"></rect><rect x="384" y="170" width="18" height="16"></rect><rect x="332" y="200" width="18" height="16"></rect><rect x="384" y="200" width="18" height="16"></rect></g>
  <rect x="326" y="252" width="78" height="12" rx="3" fill="#FFB020"></rect>
  <rect x="330" y="264" width="6" height="8" fill="#0B1B3A"></rect><rect x="394" y="264" width="6" height="8" fill="#0B1B3A"></rect>
  <rect x="382" y="240" width="14" height="12" rx="3" fill="#FF6A2B"></rect><line x1="358" y1="210" x2="350" y2="186" stroke="#0B1B3A" stroke-width="3.5"></line><rect x="336" y="178" width="28" height="11" rx="5" fill="#6FD9A6"></rect><g transform="translate(362 252) scale(0.9)"><rect x="-9" y="-30" width="7" height="30" rx="3" fill="#C9D1DE"></rect><rect x="2" y="-30" width="7" height="30" rx="3" fill="#C9D1DE"></rect><rect x="-9" y="-2" width="9" height="5" rx="2" fill="#0B1B3A"></rect><rect x="2" y="-2" width="9" height="5" rx="2" fill="#0B1B3A"></rect><rect x="-12" y="-58" width="24" height="31" rx="8" fill="#FFF6EC"></rect><rect x="-4" y="-62" width="8" height="6" fill="#5E2D1F"></rect><circle cx="0" cy="-69" r="9" fill="#5E2D1F"></circle><path d="M -10 -70 a 10 10 0 0 1 20 0 z" fill="#FFB020"></path><rect x="-11" y="-71" width="22" height="3" rx="1.5" fill="#FFB020"></rect><line x1="-9" y1="-52" x2="-6" y2="-60" stroke="#FFF6EC" stroke-width="7" stroke-linecap="round"></line><circle cx="-6" cy="-60" r="3.6" fill="#5E2D1F"></circle><line x1="9" y1="-52" x2="-6" y2="-60" stroke="#FFF6EC" stroke-width="7" stroke-linecap="round"></line><circle cx="-6" cy="-60" r="3.6" fill="#5E2D1F"></circle></g>
  <g>
    <rect x="712" y="-10" width="6" height="34" fill="#0B1B3A"></rect>
    <rect x="684" y="20" width="62" height="26" fill="#E8D9C4"></rect>
    <rect x="676" y="42" width="78" height="10" fill="#0B1B3A"></rect>
    <rect x="640" y="50" width="150" height="320" fill="#FFF6EC"></rect>
    <rect x="790" y="58" width="28" height="312" fill="#E8D9C4"></rect>
    <g fill="#0B1B3A">
      <rect x="654" y="66" width="122" height="7"></rect><rect x="654" y="84" width="122" height="7"></rect><rect x="654" y="102" width="122" height="7"></rect><rect x="654" y="120" width="122" height="7"></rect>
      <rect x="654" y="138" width="122" height="7"></rect><rect x="654" y="156" width="122" height="7"></rect><rect x="654" y="174" width="122" height="7"></rect><rect x="654" y="192" width="122" height="7"></rect>
      <rect x="654" y="210" width="122" height="7"></rect><rect x="654" y="228" width="122" height="7"></rect><rect x="654" y="246" width="122" height="7"></rect><rect x="654" y="264" width="122" height="7"></rect>
      <rect x="654" y="282" width="122" height="7"></rect><rect x="654" y="300" width="122" height="7"></rect><rect x="654" y="318" width="122" height="7"></rect>
    </g>
    <g fill="#FFF6EC"><rect x="684" y="60" width="5" height="266"></rect><rect x="712" y="60" width="5" height="266"></rect><rect x="740" y="60" width="5" height="266"></rect></g>
    <rect x="746" y="174" width="30" height="7" fill="#FFB020"></rect>
    <g fill="#CDBDA6"><rect x="790" y="66" width="28" height="4"></rect><rect x="790" y="120" width="28" height="4"></rect><rect x="790" y="174" width="28" height="4"></rect><rect x="790" y="228" width="28" height="4"></rect><rect x="790" y="282" width="28" height="4"></rect></g>
    <rect x="610" y="330" width="220" height="40" fill="#3B35C9"></rect>
    <rect x="610" y="330" width="220" height="8" fill="#0B1B3A"></rect>
  </g>
  <g fill="#FFB020">
    <rect x="1370" y="70" width="12" height="290"></rect>
    <rect x="1240" y="70" width="220" height="10"></rect>
    <rect x="1440" y="80" width="0" height="0"></rect>
    <rect x="1364" y="56" width="24" height="16"></rect>
  </g>
  <rect x="1404" y="80" width="24" height="18" fill="#0B1B3A"></rect>
  <g stroke="#FFB020" stroke-width="3"><line x1="1376" y1="56" x2="1250" y2="72"></line><line x1="1376" y1="56" x2="1440" y2="66"></line></g>
  <line x1="1270" y1="80" x2="1270" y2="190" stroke="#0B1B3A" stroke-width="3"></line>
  <rect x="1250" y="190" width="40" height="18" fill="#9BF0C4"></rect>
  <rect x="1230" y="250" width="130" height="110" fill="#F7B8D2"></rect>
  <g stroke="#0B1B3A" stroke-width="4" fill="none"><rect x="1230" y="220" width="130" height="30"></rect><line x1="1262" y1="220" x2="1262" y2="250"></line><line x1="1295" y1="220" x2="1295" y2="250"></line><line x1="1328" y1="220" x2="1328" y2="250"></line></g>
  <rect x="894" y="244" width="62" height="26" rx="7" fill="#FFF6EC"></rect><rect x="900" y="260" width="50" height="4" rx="2" fill="#0B1B3A"></rect><g transform="rotate(-12 990 370)"><rect x="966" y="236" width="5" height="136" fill="#FFB020"></rect><rect x="994" y="236" width="5" height="136" fill="#FFB020"></rect><g fill="#FFB020"><rect x="966" y="256" width="33" height="4"></rect><rect x="966" y="280" width="33" height="4"></rect><rect x="966" y="304" width="33" height="4"></rect><rect x="966" y="328" width="33" height="4"></rect><rect x="966" y="352" width="33" height="4"></rect></g></g><g transform="translate(966 318) scale(0.88)"><rect x="-9" y="-30" width="7" height="30" rx="3" fill="#0B1B3A"></rect><rect x="2" y="-30" width="7" height="30" rx="3" fill="#0B1B3A"></rect><rect x="-9" y="-2" width="9" height="5" rx="2" fill="#0B1B3A"></rect><rect x="2" y="-2" width="9" height="5" rx="2" fill="#0B1B3A"></rect><rect x="-12" y="-58" width="24" height="31" rx="8" fill="#9BF0C4"></rect><rect x="-4" y="-62" width="8" height="6" fill="#A0583A"></rect><circle cx="0" cy="-69" r="9" fill="#A0583A"></circle><path d="M -10 -70 a 10 10 0 0 1 20 0 z" fill="#FF6A2B"></path><rect x="-11" y="-71" width="22" height="3" rx="1.5" fill="#FF6A2B"></rect><line x1="-9" y1="-52" x2="-30" y2="-66" stroke="#9BF0C4" stroke-width="7" stroke-linecap="round"></line><circle cx="-30" cy="-66" r="3.6" fill="#A0583A"></circle><line x1="9" y1="-52" x2="-24" y2="-50" stroke="#9BF0C4" stroke-width="7" stroke-linecap="round"></line><circle cx="-24" cy="-50" r="3.6" fill="#A0583A"></circle></g>
  <g><rect x="-32" y="346" width="134" height="14" fill="#FFF6EC"></rect><path d="M -40 350 L 35.0 314 L 110 350 Z" fill="#9A4A26"></path><rect x="98" y="346" width="134" height="14" fill="#FFF6EC"></rect><path d="M 90 350 L 165.0 314 L 240 350 Z" fill="#7A3E2B"></path><rect x="228" y="346" width="94" height="14" fill="#FFF6EC"></rect><path d="M 220 350 L 275.0 314 L 330 350 Z" fill="#B45A2E"></path><rect x="318" y="346" width="114" height="14" fill="#FFF6EC"></rect><path d="M 310 350 L 375.0 320 L 440 350 Z" fill="#8A4424"></path><rect x="428" y="346" width="134" height="14" fill="#FFF6EC"></rect><path d="M 420 350 L 495.0 320 L 570 350 Z" fill="#9A4A26"></path><rect x="558" y="346" width="114" height="14" fill="#FFF6EC"></rect><path d="M 550 350 L 615.0 320 L 680 350 Z" fill="#7A3E2B"></path><rect x="668" y="346" width="94" height="14" fill="#FFF6EC"></rect><path d="M 660 350 L 715.0 314 L 770 350 Z" fill="#B45A2E"></path><rect x="758" y="346" width="94" height="14" fill="#FFF6EC"></rect><path d="M 750 350 L 805.0 308 L 860 350 Z" fill="#8A4424"></path><rect x="848" y="346" width="94" height="14" fill="#FFF6EC"></rect><path d="M 840 350 L 895.0 314 L 950 350 Z" fill="#9A4A26"></path><rect x="938" y="346" width="114" height="14" fill="#FFF6EC"></rect><path d="M 930 350 L 995.0 314 L 1060 350 Z" fill="#7A3E2B"></path><rect x="1048" y="346" width="94" height="14" fill="#FFF6EC"></rect><path d="M 1040 350 L 1095.0 320 L 1150 350 Z" fill="#B45A2E"></path><rect x="1138" y="346" width="114" height="14" fill="#FFF6EC"></rect><path d="M 1130 350 L 1195.0 314 L 1260 350 Z" fill="#8A4424"></path><rect x="1248" y="346" width="134" height="14" fill="#FFF6EC"></rect><path d="M 1240 350 L 1315.0 314 L 1390 350 Z" fill="#9A4A26"></path><rect x="1378" y="346" width="94" height="14" fill="#FFF6EC"></rect><path d="M 1370 350 L 1425.0 314 L 1480 350 Z" fill="#7A3E2B"></path><rect x="1468" y="346" width="134" height="14" fill="#FFF6EC"></rect><path d="M 1460 350 L 1535.0 314 L 1610 350 Z" fill="#B45A2E"></path></g>
  <g><rect x="-60" y="364" width="140" height="12" fill="#E8D9C4"></rect><path d="M -70 366 L 10.0 326 L 90 366 Z" fill="#8A4424"></path><rect x="90" y="364" width="120" height="12" fill="#E8D9C4"></rect><path d="M 80 366 L 150.0 320 L 220 366 Z" fill="#9A4A26"></path><rect x="220" y="364" width="120" height="12" fill="#E8D9C4"></rect><path d="M 210 366 L 280.0 332 L 350 366 Z" fill="#7A3E2B"></path><rect x="350" y="364" width="100" height="12" fill="#E8D9C4"></rect><path d="M 340 366 L 400.0 332 L 460 366 Z" fill="#B45A2E"></path><rect x="460" y="364" width="100" height="12" fill="#E8D9C4"></rect><path d="M 450 366 L 510.0 332 L 570 366 Z" fill="#8A4424"></path><rect x="570" y="364" width="100" height="12" fill="#E8D9C4"></rect><path d="M 560 366 L 620.0 320 L 680 366 Z" fill="#9A4A26"></path><rect x="680" y="364" width="100" height="12" fill="#E8D9C4"></rect><path d="M 670 366 L 730.0 332 L 790 366 Z" fill="#7A3E2B"></path><rect x="790" y="364" width="120" height="12" fill="#E8D9C4"></rect><path d="M 780 366 L 850.0 320 L 920 366 Z" fill="#B45A2E"></path><rect x="920" y="364" width="100" height="12" fill="#E8D9C4"></rect><path d="M 910 366 L 970.0 326 L 1030 366 Z" fill="#8A4424"></path><rect x="1030" y="364" width="120" height="12" fill="#E8D9C4"></rect><path d="M 1020 366 L 1090.0 332 L 1160 366 Z" fill="#9A4A26"></path><rect x="1160" y="364" width="100" height="12" fill="#E8D9C4"></rect><path d="M 1150 366 L 1210.0 326 L 1270 366 Z" fill="#7A3E2B"></path><rect x="1270" y="364" width="140" height="12" fill="#E8D9C4"></rect><path d="M 1260 366 L 1340.0 326 L 1420 366 Z" fill="#B45A2E"></path><rect x="1420" y="364" width="140" height="12" fill="#E8D9C4"></rect><path d="M 1410 366 L 1490.0 320 L 1570 366 Z" fill="#8A4424"></path></g>
  <rect x="-20" y="366" width="1480" height="12" fill="#9BF0C4"></rect>
  <rect x="-20" y="376" width="1480" height="140" fill="#1E8A57"></rect>
  <g transform="translate(356 432) scale(0.98)"><rect x="-44" y="-16" width="26" height="16" rx="3" fill="#FF6A2B"></rect><path d="M -38 -16 v -5 h 14 v 5" fill="none" stroke="#0B1B3A" stroke-width="3"></path><rect x="-9" y="-30" width="7" height="30" rx="3" fill="#3B35C9"></rect><rect x="2" y="-30" width="7" height="30" rx="3" fill="#3B35C9"></rect><rect x="-9" y="-2" width="9" height="5" rx="2" fill="#0B1B3A"></rect><rect x="2" y="-2" width="9" height="5" rx="2" fill="#0B1B3A"></rect><rect x="-12" y="-58" width="24" height="31" rx="8" fill="#3B35C9"></rect><rect x="-4" y="-62" width="8" height="6" fill="#7A3E2B"></rect><circle cx="0" cy="-69" r="9" fill="#7A3E2B"></circle><path d="M -10 -70 a 10 10 0 0 1 20 0 z" fill="#3B35C9"></path><rect x="-11" y="-71" width="22" height="3" rx="1.5" fill="#3B35C9"></rect><line x1="9" y1="-52" x2="18" y2="-34" stroke="#3B35C9" stroke-width="7" stroke-linecap="round"></line><circle cx="18" cy="-34" r="3.6" fill="#7A3E2B"></circle><line x1="-9" y1="-52" x2="-16" y2="-36" stroke="#3B35C9" stroke-width="7" stroke-linecap="round"></line><circle cx="-16" cy="-36" r="3.6" fill="#7A3E2B"></circle><g transform="translate(26 -18)"><circle r="16" fill="#0B1B3A"></circle><circle r="7" fill="#C9D1DE"></circle></g></g>
  <g transform="translate(452 420) scale(0.98)"><rect x="-4" y="-30" width="7" height="31" rx="3" fill="#0B1B3A" transform="rotate(18 0 -30)"></rect><rect x="-3" y="-30" width="7" height="31" rx="3" fill="#0B1B3A" transform="rotate(-16 0 -30)"></rect><rect x="-12" y="-58" width="24" height="31" rx="8" fill="#FF6A2B"></rect><rect x="-4" y="-62" width="8" height="6" fill="#5E2D1F"></rect><circle cx="0" cy="-69" r="9" fill="#5E2D1F"></circle><path d="M -10 -70 a 10 10 0 0 1 20 0 z" fill="#0B1B3A"></path><rect x="-11" y="-71" width="22" height="3" rx="1.5" fill="#0B1B3A"></rect><line x1="-9" y1="-52" x2="-14" y2="-64" stroke="#FF6A2B" stroke-width="7" stroke-linecap="round"></line><circle cx="-14" cy="-64" r="3.6" fill="#5E2D1F"></circle><line x1="9" y1="-52" x2="14" y2="-66" stroke="#FF6A2B" stroke-width="7" stroke-linecap="round"></line><circle cx="14" cy="-66" r="3.6" fill="#5E2D1F"></circle><rect x="-44" y="-66" width="84" height="8" rx="4" fill="#9BF0C4" transform="rotate(-6 0 -62)"></rect></g>
  <path d="M -20 520 L -20 462 C 320 424, 820 398, 1460 386 L 1460 428 C 900 436, 440 470, 180 520 Z" fill="#0B1B3A"></path>
  <path d="M -20 468 C 320 430, 820 404, 1460 392" fill="none" stroke="#9BF0C4" stroke-width="4"></path>
  <path d="M 0 494 C 330 452, 830 418, 1440 408" fill="none" stroke="#FFF6EC" stroke-width="4" stroke-dasharray="36 28"></path>
  <g fill="#0B1B3A">
    <rect x="516" y="300" width="6" height="124"></rect><rect x="486" y="298" width="36" height="6" rx="3"></rect><rect x="480" y="300" width="18" height="8" rx="3" fill="#FFF6EC"></rect>
    <rect x="896" y="286" width="6" height="120"></rect><rect x="866" y="284" width="36" height="6" rx="3"></rect><rect x="860" y="286" width="18" height="8" rx="3" fill="#FFF6EC"></rect>
    <rect x="1196" y="270" width="6" height="124"></rect><rect x="1166" y="268" width="36" height="6" rx="3"></rect><rect x="1160" y="270" width="18" height="8" rx="3" fill="#FFB020"></rect>
  </g>
  <g>
    <line x1="1060" y1="372" x2="1110" y2="320" stroke="#FFB020" stroke-width="10" stroke-linecap="round"></line>
    <line x1="1110" y1="320" x2="1146" y2="296" stroke="#FFB020" stroke-width="8" stroke-linecap="round"></line>
    <circle cx="1110" cy="320" r="7" fill="#0B1B3A"></circle>
    <rect x="1132" y="282" width="34" height="24" rx="4" fill="#FF6A2B"></rect><line x1="1156" y1="286" x2="1168" y2="274" stroke="#3B35C9" stroke-width="6" stroke-linecap="round"></line><circle cx="1169" cy="273" r="3.6" fill="#7A3E2B"></circle>
    <circle cx="1150" cy="274" r="9" fill="#7A3E2B"></circle>
    <path d="M 1140 272 a 10 10 0 0 1 20 0 z" fill="#FFB020"></path><rect x="1140" y="280" width="20" height="8" rx="3" fill="#3B35C9"></rect>
    <path d="M 1000 404 L 1000 376 Q 1000 368 1008 368 L 1080 368 L 1086 352 L 1116 352 L 1128 372 L 1134 380 L 1134 404 Z" fill="#FFF6EC"></path>
    <rect x="1000" y="384" width="134" height="6" fill="#FF6A2B"></rect>
    <path d="M 1090 356 L 1110 356 L 1120 370 L 1090 370 Z" fill="#7CC4FF"></path>
    <circle cx="1024" cy="406" r="11" fill="#0B1B3A"></circle><circle cx="1024" cy="406" r="4" fill="#C9D1DE"></circle>
    <circle cx="1110" cy="406" r="11" fill="#0B1B3A"></circle><circle cx="1110" cy="406" r="4" fill="#C9D1DE"></circle>
  </g>
  <g transform="translate(130 440) rotate(-5)">
    <path d="M 0 36 L 0 22 Q 0 14 10 14 L 34 14 L 50 0 L 104 0 L 122 14 L 144 16 Q 152 18 152 28 L 152 36 Z" fill="#FFF6EC"></path>
    <rect x="0" y="24" width="152" height="8" fill="#7A3E2B"></rect>
    <path d="M 56 5 L 76 5 L 76 14 L 45 14 Z" fill="#7CC4FF"></path><path d="M 82 5 L 100 5 L 114 14 L 82 14 Z" fill="#7CC4FF"></path>
    <circle cx="32" cy="38" r="12" fill="#0B1B3A"></circle><circle cx="32" cy="38" r="4" fill="#C9D1DE"></circle>
    <circle cx="120" cy="38" r="12" fill="#0B1B3A"></circle><circle cx="120" cy="38" r="4" fill="#C9D1DE"></circle>
  </g>
  <g transform="translate(640 386) rotate(-2.5) scale(0.85)">
    <path d="M 0 52 L 0 8 Q 0 0 8 0 L 112 0 Q 126 0 134 14 L 150 30 Q 154 34 154 42 L 154 52 Z" fill="#3B35C9"></path>
    <path d="M 116 6 L 128 6 L 146 30 L 116 30 Z" fill="#7CC4FF"></path>
    <rect x="0" y="24" width="112" height="8" fill="#9BF0C4"></rect>
    <rect x="30" y="8" width="40" height="12" rx="3" fill="#FFB020"></rect>
    <circle cx="32" cy="54" r="13" fill="#0B1B3A"></circle><circle cx="32" cy="54" r="5" fill="#C9D1DE"></circle>
    <circle cx="124" cy="54" r="13" fill="#0B1B3A"></circle><circle cx="124" cy="54" r="5" fill="#C9D1DE"></circle>
  </g>
  <g>
    <circle cx="590" cy="372" r="26" fill="#2EC27E"></circle><circle cx="620" cy="364" r="20" fill="#1FA866"></circle>
    <circle cx="820" cy="370" r="24" fill="#1FA866"></circle><circle cx="846" cy="362" r="18" fill="#2EC27E"></circle>
    <circle cx="1280" cy="366" r="26" fill="#2EC27E"></circle><circle cx="1310" cy="358" r="20" fill="#1FA866"></circle>
  </g>
  <g>
    <circle cx="40" cy="486" r="72" fill="#1FA866"></circle><circle cx="130" cy="506" r="56" fill="#2EC27E"></circle><circle cx="-10" cy="430" r="44" fill="#2EC27E"></circle>
    <circle cx="1390" cy="480" r="80" fill="#2EC27E"></circle><circle cx="1300" cy="512" r="52" fill="#1FA866"></circle><circle cx="1450" cy="420" r="40" fill="#1FA866"></circle>
  </g>
</svg>
