<svg xmlns="http://www.w3.org/2000/svg" viewBox="0 0 520 440" width="520" height="440"><g transform="rotate(4 360 200)"><rect x="236" y="40" width="240" height="300" rx="22" fill="#FFFFFF" stroke="#0B1B3A" stroke-width="3"></rect><circle cx="278" cy="84" r="20" fill="#FFE3CC"></circle><path d="M 266 82 a 12 12 0 0 1 24 0 z" fill="#FFB020"></path><circle cx="278" cy="92" r="8" fill="#7A3E2B"></circle><rect x="310" y="72" width="116" height="10" rx="5" fill="#0B1B3A"></rect><rect x="310" y="90" width="72" height="8" rx="4" fill="#C9D1DE"></rect><rect x="258" y="128" width="196" height="8" rx="4" fill="#E6E4DD"></rect><rect x="258" y="146" width="160" height="8" rx="4" fill="#E6E4DD"></rect><rect x="258" y="164" width="176" height="8" rx="4" fill="#E6E4DD"></rect><rect x="258" y="194" width="196" height="54" rx="12" fill="#FFE3CC"></rect><rect x="274" y="210" width="46" height="8" rx="4" fill="#9AA6BA"></rect><rect x="274" y="224" width="116" height="14" rx="5" fill="#0B1B3A"></rect><rect x="258" y="266" width="196" height="50" rx="14" fill="#9BF0C4"></rect><path d="M 336 291 l 9 9 l 18 -18" fill="none" stroke="#0B1B3A" stroke-width="5" stroke-linecap="round" stroke-linejoin="round"></path></g><path transform="translate(490 70) scale(1.1)" d="M 0 -14 l 4 10 l 10 4 l -10 4 l -4 10 l -4 -10 l -10 -4 l 10 -4 z" fill="#3B35C9"></path><path transform="translate(214 120) scale(0.8)" d="M 0 -14 l 4 10 l 10 4 l -10 4 l -4 10 l -4 -10 l -10 -4 l 10 -4 z" fill="#FFF6EC"></path><g transform="translate(140 470) scale(3.2 3.2)"><path d="M -6 -44 L -7 -22 L -8 -3" stroke="#0B1B3A" stroke-width="11" stroke-linecap="round" stroke-linejoin="round" fill="none"></path><rect x="-14" y="-6" width="15" height="7" rx="3.5" fill="#0B1B3A"></rect><path d="M 6 -44 L 7 -22 L 8 -3" stroke="#0B1B3A" stroke-width="11" stroke-linecap="round" stroke-linejoin="round" fill="none"></path><rect x="2" y="-6" width="15" height="7" rx="3.5" fill="#0B1B3A"></rect><rect x="-15" y="-81" width="30" height="40" rx="11" fill="#9BF0C4"></rect><rect x="-4" y="-88" width="8" height="9" fill="#7A3E2B"></rect><circle cx="0" cy="-97" r="11" fill="#A0583A"></circle><path d="M -13 -98 q 0 -18 13 -18 q 13 0 13 18 q -6 -6 -13 -5 q -7 -1 -13 5 z" fill="#FF6A2B"></path><circle cx="10" cy="-114" r="5" fill="#FF6A2B"></circle><path d="M -13 -76 L -18 -58" stroke="#9BF0C4" stroke-width="10" stroke-linecap="round" fill="none"></path><path d="M -18 -58 L -14 -46" stroke="#A0583A" stroke-width="8" stroke-linecap="round" fill="none"></path><circle cx="-14" cy="-46" r="5" fill="#A0583A"></circle><path d="M 13 -76 L 22 -92" stroke="#9BF0C4" stroke-width="10" stroke-linecap="round" fill="none"></path><path d="M 22 -92 L 16 -100" stroke="#A0583A" stroke-width="8" stroke-linecap="round" fill="none"></path><circle cx="16" cy="-100" r="5" fill="#A0583A"></circle><rect x="10" y="-114" width="14" height="24" rx="3" fill="#0B1B3A"></rect><rect x="12" y="-111" width="10" height="16" rx="2" fill="#7CC4FF"></rect></g></svg>