<svg xmlns="http://www.w3.org/2000/svg" viewBox="0 0 320 230" width="320" height="230"><g transform="translate(150 34)"><rect width="120" height="210" rx="19" fill="#0B1B3A"></rect><rect x="7" y="12" width="106" height="186" rx="12" fill="#FFF6EC"></rect><rect x="16" y="30" width="88" height="22" rx="11" fill="#FFFFFF" stroke="#0B1B3A" stroke-width="2"></rect><circle cx="29" cy="41" r="5" fill="none" stroke="#0B1B3A" stroke-width="2"></circle><rect x="40" y="38" width="50" height="6" rx="3" fill="#C9D1DE"></rect><rect x="16" y="64" width="88" height="34" rx="8" fill="#FFE3CC"></rect><circle cx="31" cy="81" r="9" fill="#FF6A2B"></circle><rect x="46" y="74" width="48" height="6" rx="3" fill="#0B1B3A"></rect><rect x="46" y="84" width="32" height="5" rx="2.5" fill="#9AA6BA"></rect><rect x="16" y="106" width="88" height="34" rx="8" fill="#FFFFFF"></rect><circle cx="31" cy="123" r="9" fill="#3B35C9"></circle><rect x="46" y="116" width="44" height="6" rx="3" fill="#0B1B3A"></rect><rect x="46" y="126" width="28" height="5" rx="2.5" fill="#9AA6BA"></rect></g><g transform="translate(270 44)"><path d="M 0 30 C -18 12 -18 -12 0 -12 C 18 -12 18 12 0 30 Z" fill="#FF6A2B" stroke="#0B1B3A" stroke-width="3"></path><circle cy="4" r="6" fill="#FFF6EC"></circle></g><g transform="translate(92 262) scale(2.0 2.0)"><path d="M -6 -44 L -7 -22 L -8 -3" stroke="#0B1B3A" stroke-width="11" stroke-linecap="round" stroke-linejoin="round" fill="none"></path><rect x="-14" y="-6" width="15" height="7" rx="3.5" fill="#0B1B3A"></rect><path d="M 6 -44 L 7 -22 L 8 -3" stroke="#0B1B3A" stroke-width="11" stroke-linecap="round" stroke-linejoin="round" fill="none"></path><rect x="2" y="-6" width="15" height="7" rx="3.5" fill="#0B1B3A"></rect><rect x="-15" y="-81" width="30" height="40" rx="11" fill="#3B35C9"></rect><rect x="-4" y="-88" width="8" height="9" fill="#7A3E2B"></rect><circle cx="0" cy="-97" r="11" fill="#A0583A"></circle><path d="M -11 -99 a 11 11 0 0 1 22 0 q -6 -4 -11 -3 q -6 -1 -11 3 z" fill="#0B1B3A"></path><path d="M -13 -76 L -17 -60" stroke="#3B35C9" stroke-width="10" stroke-linecap="round" fill="none"></path><path d="M -17 -60 L -15 -46" stroke="#A0583A" stroke-width="8" stroke-linecap="round" fill="none"></path><circle cx="-15" cy="-46" r="5" fill="#A0583A"></circle><path d="M 13 -76 L 24 -66" stroke="#3B35C9" stroke-width="10" stroke-linecap="round" fill="none"></path><path d="M 24 -66 L 30 -80" stroke="#A0583A" stroke-width="8" stroke-linecap="round" fill="none"></path><circle cx="30" cy="-80" r="5" fill="#A0583A"></circle></g><path transform="translate(40 50) scale(1.1)" d="M 0 -14 l 4 10 l 10 4 l -10 4 l -4 10 l -4 -10 l -10 -4 l 10 -4 z" fill="#FFB020"></path></svg>