<svg xmlns="http://www.w3.org/2000/svg" viewBox="0 0 600 460" width="600" height="460"><rect x="392" y="76" width="14" height="24" fill="#9AA6BA"></rect><rect x="330" y="96" width="140" height="200" rx="10" fill="#0B1B3A"></rect><rect x="342" y="108" width="116" height="176" rx="6" fill="#1B3160"></rect><rect x="352" y="122" width="14" height="30" rx="3" fill="#9BF0C4"></rect><rect x="372" y="122" width="14" height="30" rx="3" fill="#9BF0C4"></rect><rect x="392" y="122" width="14" height="30" rx="3" fill="#9BF0C4"></rect><rect x="412" y="122" width="14" height="30" rx="3" fill="#9BF0C4"></rect><rect x="432" y="122" width="14" height="30" rx="3" fill="#9BF0C4"></rect><rect x="352" y="174" width="14" height="30" rx="3" fill="#C9D1DE"></rect><rect x="372" y="174" width="14" height="30" rx="3" fill="#C9D1DE"></rect><rect x="392" y="174" width="14" height="30" rx="3" fill="#C9D1DE"></rect><rect x="412" y="174" width="14" height="30" rx="3" fill="#C9D1DE"></rect><rect x="432" y="174" width="14" height="30" rx="3" fill="#C9D1DE"></rect><rect x="352" y="226" width="14" height="30" rx="3" fill="#FF6A2B"></rect><rect x="372" y="226" width="14" height="30" rx="3" fill="#FF6A2B"></rect><rect x="392" y="226" width="14" height="30" rx="3" fill="#FF6A2B"></rect><rect x="412" y="226" width="14" height="30" rx="3" fill="#FF6A2B"></rect><rect x="432" y="226" width="14" height="30" rx="3" fill="#FF6A2B"></rect><path d="M 470 104 L 520 118 L 520 290 L 470 296 Z" fill="#3B35C9"></path><circle cx="508" cy="206" r="4" fill="#FFF6EC"></circle><path transform="translate(540 120) scale(1.1)" d="M 0 -14 l 4 10 l 10 4 l -10 4 l -4 10 l -4 -10 l -10 -4 l 10 -4 z" fill="#FFB020"></path><path transform="translate(318 170) scale(0.8)" d="M 0 -14 l 4 10 l 10 4 l -10 4 l -4 10 l -4 -10 l -10 -4 l 10 -4 z" fill="#FF6A2B"></path><g transform="translate(262 428) scale(3.0 3.0)"><path d="M -6 -44 L -7 -22 L -8 -3" stroke="#0B1B3A" stroke-width="11" stroke-linecap="round" stroke-linejoin="round" fill="none"></path><rect x="-14" y="-6" width="15" height="7" rx="3.5" fill="#0B1B3A"></rect><path d="M 6 -44 L 7 -22 L 8 -3" stroke="#0B1B3A" stroke-width="11" stroke-linecap="round" stroke-linejoin="round" fill="none"></path><rect x="2" y="-6" width="15" height="7" rx="3.5" fill="#0B1B3A"></rect><rect x="-15" y="-81" width="30" height="40" rx="11" fill="#3B35C9"></rect><rect x="-16" y="-47" width="32" height="6" rx="3" fill="#5E2D1F"></rect><rect x="6" y="-47" width="8" height="12" rx="2" fill="#5E2D1F"></rect><rect x="-4" y="-88" width="8" height="9" fill="#5E2D1F"></rect><circle cx="0" cy="-97" r="11" fill="#7A3E2B"></circle><path d="M -12 -99 a 12 12 0 0 1 24 0 z" fill="#FFB020"></path><rect x="-14" y="-100" width="28" height="4" rx="2" fill="#FFB020"></rect><rect x="-2" y="-111" width="4" height="10" rx="2" fill="#FFFFFF" opacity="0.5"></rect><path d="M -13 -76 L -18 -60" stroke="#3B35C9" stroke-width="10" stroke-linecap="round" fill="none"></path><path d="M -18 -60 L -9 -50" stroke="#7A3E2B" stroke-width="8" stroke-linecap="round" fill="none"></path><circle cx="-9" cy="-50" r="5" fill="#7A3E2B"></circle><path d="M 13 -76 L 30 -80" stroke="#3B35C9" stroke-width="10" stroke-linecap="round" fill="none"></path><path d="M 30 -80 L 44 -88" stroke="#7A3E2B" stroke-width="8" stroke-linecap="round" fill="none"></path><circle cx="44" cy="-88" r="5" fill="#7A3E2B"></circle><line x1="46" y1="-88" x2="60" y2="-93" stroke="#C9D1DE" stroke-width="2.4" stroke-linecap="round"></line><rect x="38" y="-91" width="10" height="6" rx="2" fill="#FFB020"></rect><rect x="-14" y="-58" width="10" height="16" rx="3" fill="#FF6A2B"></rect><rect x="-11" y="-55" width="4" height="4" fill="#9BF0C4"></rect></g><path d="M 40 440 C 90 420, 70 380, 120 386 C 160 392, 150 432, 110 428 C 80 424, 100 380, 160 384" fill="none" stroke="#FFF6EC" stroke-width="9" stroke-linecap="round"></path></svg>