<svg xmlns="http://www.w3.org/2000/svg" viewBox="0 0 600 460" width="600" height="460"><circle cx="130" cy="110" r="46" fill="#FFB020"></circle><g stroke="#FFB020" stroke-width="7" stroke-linecap="round"><line x1="130" y1="40" x2="130" y2="52"></line><line x1="60" y1="110" x2="72" y2="110"></line><line x1="80" y1="60" x2="89" y2="69"></line><line x1="180" y1="60" x2="171" y2="69"></line><line x1="200" y1="110" x2="188" y2="110"></line></g><path d="M -10 470 L -10 400 L 610 256 L 610 470 Z" fill="#E2551B"></path><path d="M -10 400 L 610 256" stroke="#B8431A" stroke-width="10"></path><path d="M 20 407.04 L 60 470" stroke="#C74A1C" stroke-width="3"></path><path d="M 80 393.12 L 120 470" stroke="#C74A1C" stroke-width="3"></path><path d="M 140 379.2 L 180 470" stroke="#C74A1C" stroke-width="3"></path><path d="M 200 365.28 L 240 470" stroke="#C74A1C" stroke-width="3"></path><path d="M 260 351.36 L 300 470" stroke="#C74A1C" stroke-width="3"></path><path d="M 320 337.44 L 360 470" stroke="#C74A1C" stroke-width="3"></path><path d="M 380 323.52 L 420 470" stroke="#C74A1C" stroke-width="3"></path><path d="M 440 309.6 L 480 470" stroke="#C74A1C" stroke-width="3"></path><path d="M 500 295.68 L 540 470" stroke="#C74A1C" stroke-width="3"></path><path d="M 560 281.76 L 600 470" stroke="#C74A1C" stroke-width="3"></path><g transform="translate(40 358) rotate(-13)"><rect x="0" y="0" width="110" height="46" rx="4" fill="#3B35C9"></rect><g stroke="#9BF0C4" stroke-width="2.5"><line x1="36.666666666666664" y1="2" x2="36.666666666666664" y2="44"></line><line x1="73.33333333333333" y1="2" x2="73.33333333333333" y2="44"></line><line x1="2" y1="23.0" x2="108" y2="23.0"></line></g></g><g transform="translate(160 330) rotate(-13)"><rect x="0" y="0" width="110" height="46" rx="4" fill="#3B35C9"></rect><g stroke="#9BF0C4" stroke-width="2.5"><line x1="36.666666666666664" y1="2" x2="36.666666666666664" y2="44"></line><line x1="73.33333333333333" y1="2" x2="73.33333333333333" y2="44"></line><line x1="2" y1="23.0" x2="108" y2="23.0"></line></g></g><g transform="translate(500 284) scale(2.0 2.0)"><path d="M -6 -44 L -10 -22 L -14 -1" stroke="#0B1B3A" stroke-width="11" stroke-linecap="round" stroke-linejoin="round" fill="none"></path><rect x="-20" y="-4" width="15" height="7" rx="3.5" fill="#0B1B3A"></rect><path d="M 6 -44 L 10 -24 L 12 -9" stroke="#0B1B3A" stroke-width="11" stroke-linecap="round" stroke-linejoin="round" fill="none"></path><rect x="6" y="-12" width="15" height="7" rx="3.5" fill="#0B1B3A"></rect><rect x="-15" y="-81" width="30" height="40" rx="11" fill="#F7B8D2"></rect><rect x="-16" y="-47" width="32" height="6" rx="3" fill="#5E2D1F"></rect><rect x="6" y="-47" width="8" height="12" rx="2" fill="#5E2D1F"></rect><rect x="-4" y="-88" width="8" height="9" fill="#5E2D1F"></rect><circle cx="0" cy="-97" r="11" fill="#7A3E2B"></circle><path d="M -12 -99 a 12 12 0 0 1 24 0 z" fill="#FFB020"></path><rect x="-14" y="-100" width="28" height="4" rx="2" fill="#FFB020"></rect><rect x="-2" y="-111" width="4" height="10" rx="2" fill="#FFFFFF" opacity="0.5"></rect><path d="M -13 -76 L -24 -100" stroke="#F7B8D2" stroke-width="10" stroke-linecap="round" fill="none"></path><path d="M -24 -100 L -18 -118" stroke="#7A3E2B" stroke-width="8" stroke-linecap="round" fill="none"></path><circle cx="-18" cy="-118" r="5" fill="#7A3E2B"></circle><path d="M 13 -76 L 26 -100" stroke="#F7B8D2" stroke-width="10" stroke-linecap="round" fill="none"></path><path d="M 26 -100 L 30 -120" stroke="#7A3E2B" stroke-width="8" stroke-linecap="round" fill="none"></path><circle cx="30" cy="-120" r="5" fill="#7A3E2B"></circle><g transform="rotate(-10 10 -130)"><rect x="-32" y="-146" width="78" height="30" rx="3" fill="#3B35C9"></rect><g stroke="#9BF0C4" stroke-width="2"><line x1="-6" y1="-145" x2="-6" y2="-117"></line><line x1="20" y1="-145" x2="20" y2="-117"></line><line x1="-31" y1="-131" x2="45" y2="-131"></line></g></g></g></svg>