<svg xmlns="http://www.w3.org/2000/svg" width="320" height="230"><g transform="translate(26 40)"><rect width="96" height="170" fill="#0B1B3A" rx="15"/><rect width="82" height="146" x="7" y="12" fill="#FFF6EC" rx="10"/><circle cx="48" cy="70" r="26" fill="#9BF0C4" stroke="#0B1B3A" stroke-width="3"/><path fill="none" stroke="#0B1B3A" stroke-linecap="round" stroke-linejoin="round" stroke-width="5" d="m37 70 8 9 15-17"/><rect width="60" height="18" x="18" y="110" fill="#FF6A2B" rx="9"/></g><path fill="none" stroke="#FFF6EC" stroke-dasharray="6 7" stroke-linecap="round" stroke-width="3" d="M128 90c32-40 68-34 86 6"/><g stroke="#0B1B3A" transform="rotate(-8 532.621 -1040.55)"><circle r="14" fill="#FFB020" stroke-width="2.5"/><g fill="none" stroke-linecap="round" stroke-width="2.2"><path stroke-width="2.0460000000000003" d="M-4.65 6.51V-6.51l9.3 13.02V-6.51M-7.44-1.395H7.44M-7.44 2.325H7.44"/></g></g><g stroke="#0B1B3A" transform="rotate(10 -238.472 1091.995)"><circle r="14" fill="#FFB020" stroke-width="2.5"/><g fill="none" stroke-linecap="round" stroke-width="2.2"><path stroke-width="2.0460000000000003" d="M-4.65 6.51V-6.51l9.3 13.02V-6.51M-7.44-1.395H7.44M-7.44 2.325H7.44"/></g></g><g transform="matrix(2.1 0 0 2.1 250 266)"><path fill="none" stroke="#0B1B3A" stroke-linecap="round" stroke-linejoin="round" stroke-width="11" d="m-6-44-1 22-1 19"/><rect width="15" height="7" x="-14" y="-6" fill="#0B1B3A" rx="3.5"/><path fill="none" stroke="#0B1B3A" stroke-linecap="round" stroke-linejoin="round" stroke-width="11" d="m6-44 1 22L8-3"/><rect width="15" height="7" x="2" y="-6" fill="#0B1B3A" rx="3.5"/><rect width="30" height="40" x="-15" y="-81" fill="#FF6A2B" rx="11"/><rect width="32" height="6" x="-16" y="-47" fill="#5E2D1F" rx="3"/><rect width="8" height="12" x="6" y="-47" fill="#5E2D1F" rx="2"/><path fill="#7A3E2B" d="M-4-88h8v9h-8z"/><circle cy="-97" r="11" fill="#A0583A"/><path fill="#FFB020" d="M-12-99a12 12 0 0 1 24 0z"/><rect width="28" height="4" x="-14" y="-100" fill="#FFB020" rx="2"/><rect width="4" height="10" x="-2" y="-111" fill="#FFF" opacity=".5" rx="2"/><path fill="none" stroke="#FF6A2B" stroke-linecap="round" stroke-width="10" d="m-13-76-11-18"/><path fill="none" stroke="#A0583A" stroke-linecap="round" stroke-width="8" d="m-24-94 12-16"/><circle cx="-12" cy="-110" r="5" fill="#A0583A"/><path fill="none" stroke="#FF6A2B" stroke-linecap="round" stroke-width="10" d="m13-76 11-18"/><path fill="none" stroke="#A0583A" stroke-linecap="round" stroke-width="8" d="m24-94-10-16"/><circle cx="14" cy="-110" r="5" fill="#A0583A"/></g><path fill="#FFB020" d="m296 57.4 3.6 9 9 3.6-9 3.6-3.6 9-3.6-9-9-3.6 9-3.6z"/><path fill="#9BF0C4" d="m206 126.2 2.8 7 7 2.8-7 2.8-2.8 7-2.8-7-7-2.8 7-2.8z"/></svg>