<svg xmlns="http://www.w3.org/2000/svg" width="600" height="460"><rect width="190" height="72" x="380" y="96" fill="#FFF6EC" stroke="#0B1B3A" stroke-width="4" rx="18"/><rect width="162" height="8" x="394" y="146" fill="#0B1B3A" rx="4"/><circle cx="548" cy="116" r="5" fill="#9BF0C4"/><path fill="#C9D1DE" d="m384 100 36-30h148l-2 30Z"/><g fill="none" stroke="#7CC4FF" stroke-linecap="round" stroke-width="6"><path d="M430 178q10 14 0 28t0 28M476 178q10 14 0 28t0 28M522 178q10 14 0 28t0 28"/></g><g transform="rotate(8 320 430)"><rect width="8" height="260" x="286" y="170" fill="#FFB020" rx="3"/><rect width="8" height="260" x="346" y="170" fill="#FFB020" rx="3"/><rect width="68" height="7" x="286" y="200" fill="#E08E00" rx="3"/><rect width="68" height="7" x="286" y="240" fill="#E08E00" rx="3"/><rect width="68" height="7" x="286" y="280" fill="#E08E00" rx="3"/><rect width="68" height="7" x="286" y="320" fill="#E08E00" rx="3"/><rect width="68" height="7" x="286" y="360" fill="#E08E00" rx="3"/><rect width="68" height="7" x="286" y="400" fill="#E08E00" rx="3"/></g><rect width="80" height="40" x="120" y="386" fill="#FF6A2B" rx="6"/><path fill="none" stroke="#0B1B3A" stroke-width="5" d="M140 386v-12h40v12"/><g transform="matrix(2.3 0 0 2.3 334 318)"><path fill="none" stroke="#3B35C9" stroke-linecap="round" stroke-linejoin="round" stroke-width="11" d="M-6-44v41"/><rect width="15" height="7" x="-12" y="-6" fill="#0B1B3A" rx="3.5"/><path fill="none" stroke="#3B35C9" stroke-linecap="round" stroke-linejoin="round" stroke-width="11" d="m6-44 10 10-2 16"/><rect width="15" height="7" x="8" y="-21" fill="#0B1B3A" rx="3.5"/><rect width="30" height="40" x="-15" y="-81" fill="#9BF0C4" rx="11"/><rect width="32" height="6" x="-16" y="-47" fill="#5E2D1F" rx="3"/><rect width="8" height="12" x="6" y="-47" fill="#5E2D1F" rx="2"/><path fill="#7A3E2B" d="M-4-88h8v9h-8z"/><circle cy="-97" r="11" fill="#A0583A"/><path fill="#FFB020" d="M-11-100a11 11 0 0 1 22 0z"/><rect width="16" height="4" x="2" y="-101" fill="#FFB020" rx="2"/><path fill="none" stroke="#9BF0C4" stroke-linecap="round" stroke-width="10" d="m-13-76-5 16"/><path fill="none" stroke="#A0583A" stroke-linecap="round" stroke-width="8" d="m-18-60 16 8"/><circle cx="-2" cy="-52" r="5" fill="#A0583A"/><path fill="none" stroke="#9BF0C4" stroke-linecap="round" stroke-width="10" d="m13-76 17-16"/><path fill="none" stroke="#A0583A" stroke-linecap="round" stroke-width="8" d="m30-92 12-12"/><circle cx="42" cy="-104" r="5" fill="#A0583A"/><circle cx="46" cy="-104" r="7" fill="#FFF6EC" stroke="#0B1B3A" stroke-width="2"/><path stroke="#FF6A2B" stroke-width="1.6" d="m46-104 4-4"/></g></svg>